<mxfile host="app.diagrams.net" modified="2024-02-19T20:46:43.283Z" agent="Mozilla/5.0 (Windows NT 10.0; Win64; x64) AppleWebKit/537.36 (KHTML, like Gecko) Chrome/121.0.0.0 Safari/537.36" etag="YWI3tw2g2qG66FVUEuUU" version="23.1.5" type="github">
  <diagram name="Seite-1" id="aqUWENsedtB-4A1o6f6X">
    <mxGraphModel dx="1841" dy="997" grid="1" gridSize="10" guides="1" tooltips="1" connect="1" arrows="1" fold="1" page="1" pageScale="1" pageWidth="827" pageHeight="1169" math="0" shadow="0">
      <root>
        <mxCell id="0" />
        <mxCell id="1" parent="0" />
        <mxCell id="fw55-IfhmhYMfL9lBJqC-1" value="Diagram Heading" style="shape=umlFrame;whiteSpace=wrap;html=1;pointerEvents=0;recursiveResize=0;container=1;collapsible=0;width=160;" vertex="1" parent="1">
          <mxGeometry x="40" y="40" width="720" height="680" as="geometry" />
        </mxCell>
        <mxCell id="fw55-IfhmhYMfL9lBJqC-5" value="Fahrgast" style="shape=umlLifeline;perimeter=lifelinePerimeter;whiteSpace=wrap;html=1;container=1;dropTarget=0;collapsible=0;recursiveResize=0;outlineConnect=0;portConstraint=eastwest;newEdgeStyle={&quot;edgeStyle&quot;:&quot;elbowEdgeStyle&quot;,&quot;elbow&quot;:&quot;vertical&quot;,&quot;curved&quot;:0,&quot;rounded&quot;:0};" vertex="1" parent="fw55-IfhmhYMfL9lBJqC-1">
          <mxGeometry x="40" y="60" width="160" height="620" as="geometry" />
        </mxCell>
        <mxCell id="fw55-IfhmhYMfL9lBJqC-6" value="PersÃ¶nlicher Berater" style="shape=umlLifeline;perimeter=lifelinePerimeter;whiteSpace=wrap;html=1;container=1;dropTarget=0;collapsible=0;recursiveResize=0;outlineConnect=0;portConstraint=eastwest;newEdgeStyle={&quot;edgeStyle&quot;:&quot;elbowEdgeStyle&quot;,&quot;elbow&quot;:&quot;vertical&quot;,&quot;curved&quot;:0,&quot;rounded&quot;:0};" vertex="1" parent="fw55-IfhmhYMfL9lBJqC-1">
          <mxGeometry x="520" y="60" width="160" height="620" as="geometry" />
        </mxCell>
        <mxCell id="fw55-IfhmhYMfL9lBJqC-7" value="Fahrkartenautomat" style="shape=umlLifeline;perimeter=lifelinePerimeter;whiteSpace=wrap;html=1;container=1;dropTarget=0;collapsible=0;recursiveResize=0;outlineConnect=0;portConstraint=eastwest;newEdgeStyle={&quot;edgeStyle&quot;:&quot;elbowEdgeStyle&quot;,&quot;elbow&quot;:&quot;vertical&quot;,&quot;curved&quot;:0,&quot;rounded&quot;:0};" vertex="1" parent="fw55-IfhmhYMfL9lBJqC-1">
          <mxGeometry x="280" y="60" width="160" height="620" as="geometry" />
        </mxCell>
      </root>
    </mxGraphModel>
  </diagram>
</mxfile>
